<?xml version="1.0" encoding="utf-8"?>
<!-- Generator: Adobe Illustrator 23.1.1, SVG Export Plug-In . SVG Version: 6.00 Build 0)  -->
<svg version="1.1" id="Layer_1" xmlns="http://www.w3.org/2000/svg" xmlns:xlink="http://www.w3.org/1999/xlink" x="0px" y="0px"
	 viewBox="0 0 144 72" style="enable-background:new 0 0 144 72;" xml:space="preserve">
<style type="text/css">
	.st0{fill-rule:evenodd;clip-rule:evenodd;fill:#010101;}
	.st1{fill:#010101;}
</style>
<g>
	<g>
		<path class="st0" d="M58,43.9c-5.4,4-13.3,6.1-20.1,6.1c-9.5,0-18-3.5-24.5-9.4c-0.5-0.5-0.1-1.1,0.6-0.7c7,4.1,15.6,6.5,24.5,6.5
			c6,0,12.6-1.2,18.7-3.8C58.1,42.3,58.9,43.3,58,43.9z"/>
		<path class="st0" d="M60.2,41.4c-0.7-0.9-4.6-0.4-6.3-0.2c-0.5,0.1-0.6-0.4-0.1-0.7c3.1-2.2,8.2-1.6,8.8-0.8
			c0.6,0.7-0.2,5.8-3.1,8.3c-0.4,0.4-0.9,0.2-0.7-0.3C59.4,45.9,60.9,42.3,60.2,41.4z"/>
	</g>
	<g>
		<path class="st0" d="M54,25v-2.1c0-0.3,0.2-0.5,0.5-0.5l9.5,0c0.3,0,0.5,0.2,0.5,0.5l0,1.8c0,0.3-0.3,0.7-0.7,1.3l-4.9,7
			c1.8,0,3.8,0.2,5.4,1.2c0.4,0.2,0.5,0.5,0.5,0.8v2.3c0,0.3-0.3,0.7-0.7,0.5c-2.9-1.5-6.8-1.7-10,0c-0.3,0.2-0.7-0.2-0.7-0.5v-2.2
			c0-0.3,0-0.9,0.4-1.5l5.7-8.2l-5,0C54.2,25.5,54,25.3,54,25z"/>
		<path class="st0" d="M19.3,38.2h-2.9c-0.3,0-0.5-0.2-0.5-0.5l0-14.8c0-0.3,0.2-0.5,0.6-0.5l2.7,0c0.3,0,0.5,0.2,0.5,0.5v1.9h0.1
			c0.7-1.9,2-2.7,3.8-2.7c1.8,0,2.9,0.9,3.8,2.7c0.7-1.9,2.3-2.7,4-2.7c1.2,0,2.5,0.5,3.3,1.6c0.9,1.2,0.7,3.1,0.7,4.7l0,9.4
			c0,0.3-0.2,0.5-0.6,0.5h-2.9c-0.3,0-0.5-0.2-0.5-0.5l0-7.9c0-0.6,0.1-2.2-0.1-2.8c-0.2-1-0.9-1.3-1.7-1.3c-0.7,0-1.4,0.5-1.7,1.2
			c-0.3,0.7-0.3,2-0.3,2.8v7.9c0,0.3-0.2,0.5-0.6,0.5h-2.9c-0.3,0-0.5-0.2-0.5-0.5l0-7.9c0-1.7,0.3-4.1-1.8-4.1c-2.1,0-2,2.4-2,4.1
			l0,7.9C19.9,38,19.6,38.2,19.3,38.2z"/>
		<path class="st0" d="M72.8,22.1c4.3,0,6.6,3.7,6.6,8.4c0,4.5-2.6,8.1-6.6,8.1c-4.2,0-6.5-3.7-6.5-8.3
			C66.3,25.7,68.6,22.1,72.8,22.1z M72.8,25.1c-2.1,0-2.3,2.9-2.3,4.7c0,1.8,0,5.7,2.2,5.7c2.2,0,2.3-3.1,2.3-5
			c0-1.2-0.1-2.7-0.4-3.9C74.4,25.5,73.7,25.1,72.8,25.1z"/>
		<path class="st0" d="M84.9,38.2h-2.9c-0.3,0-0.5-0.2-0.5-0.5l0-14.8c0-0.3,0.3-0.5,0.6-0.5l2.7,0c0.3,0,0.5,0.2,0.5,0.4v2.3h0.1
			c0.8-2,1.9-3,3.9-3c1.3,0,2.6,0.5,3.4,1.7c0.8,1.2,0.8,3.2,0.8,4.6v9.3c0,0.3-0.3,0.5-0.6,0.5H90c-0.3,0-0.5-0.2-0.5-0.5v-8.1
			c0-1.6,0.2-4-1.8-4c-0.7,0-1.3,0.5-1.7,1.2c-0.4,0.9-0.5,1.8-0.5,2.8v8C85.5,38,85.3,38.2,84.9,38.2z"/>
		<path class="st0" d="M95.2,37.1c0-0.7,0.6-1.4,1.4-1.4c0.8,0,1.4,0.6,1.4,1.4c0,0.7-0.6,1.4-1.4,1.4
			C95.9,38.4,95.2,37.8,95.2,37.1z"/>
		<path class="st1" d="M125.9,38.2c-0.3,0-0.5-0.2-0.5-0.5V22.9c0-0.3,0.2-0.5,0.5-0.5l1.1,0c0.3,0,0.5,0.2,0.6,0.5V25
			c0.8-1.7,2.2-3.1,3.9-3.1l0.1,0l0.1,0c1.9,0,3.3,1.4,3.8,3.4c0.8-2,2.3-3.4,4.3-3.4l0.1,0l0.1,0c1.4,0,2.8,0.9,3.5,2.3
			c0.7,1.3,0.6,3.1,0.6,4.5l0,8.9c0,0.3-0.2,0.5-0.5,0.5h-1.3c-0.3,0-0.5-0.2-0.5-0.5v-9c0-1.1,0.1-2.2-0.4-3.2
			c-0.4-1-1.3-1.6-2.2-1.7c-1,0-1.9,0.8-2.5,1.8c-0.8,1.3-0.8,2.4-0.8,3.9v8.1c0,0.2-0.2,0.4-0.5,0.5H134c-0.3,0-0.5-0.2-0.5-0.5
			l0-9.5c0-0.9-0.1-1.9-0.5-2.7c-0.5-0.9-1.3-1.5-2.2-1.5c-0.9,0.1-1.8,0.7-2.4,1.6c-0.7,1-0.8,2.3-0.8,3.6l0,8.6
			c0,0.3-0.2,0.5-0.5,0.5H125.9z"/>
		<path class="st1" d="M117.1,38.6c-4.1,0-5.9-4.2-5.9-8.4c0-4.4,2.2-8.2,6.3-8.2l0.1,0l0.1,0c4,0,6,4.1,6,8.2
			c0,4.4-2.2,8.3-6.4,8.3l-0.1,0L117.1,38.6z M117.5,36.5c1.3,0,2.4-0.9,3-2.3c0.6-1.2,0.7-2.7,0.7-4.1c0-1.5-0.2-3.1-0.9-4.3
			c-0.6-1.1-1.7-1.8-2.9-1.9c-1.3,0-2.4,0.9-3,2.2c-0.5,1.2-0.7,2.7-0.7,4c0,1.4,0.2,3.1,0.8,4.3C115.1,35.7,116.2,36.5,117.5,36.5z
			"/>
		<path class="st1" d="M104.3,36.5c1.8-0.1,2.8-1.5,3.2-3.4c0.1-0.2,0.3-0.4,0.5-0.4l1.2,0c0.3,0,0.6,0.2,0.5,0.5
			c-0.6,3.3-2.5,5.5-5.3,5.5l-0.1,0l-0.1,0c-4.1,0-5.8-4.1-5.8-8.2c0-4.1,1.8-8.3,5.9-8.3l0.1,0l0.1,0c2.8,0,4.8,2.2,5.3,5.4
			c0,0.2-0.2,0.5-0.5,0.5l-1.3,0c-0.3,0-0.4-0.3-0.5-0.5c-0.3-1.8-1.4-3.3-3.1-3.3c-2.8,0.1-3.6,3.5-3.6,6.1
			C100.9,32.7,101.6,36.4,104.3,36.5z"/>
		<path class="st0" d="M46.4,31.2c0,1.1,0,2.1-0.5,3.1c-0.5,0.8-1.2,1.3-2,1.3c-1.1,0-1.8-0.8-1.8-2.1c0-2.5,2.2-2.9,4.3-2.9V31.2z
			 M49.3,38.2c-0.2,0.2-0.5,0.2-0.7,0.1c-1-0.8-1.1-1.2-1.7-1.9c-1.6,1.6-2.7,2.1-4.8,2.1c-2.4,0-4.3-1.5-4.3-4.5
			c0-2.3,1.3-3.9,3.1-4.7c1.6-0.7,3.8-0.8,5.4-1v-0.4c0-0.7,0.1-1.5-0.4-2.1c-0.4-0.5-1-0.8-1.6-0.8c-1.1,0-2.1,0.6-2.3,1.7
			c-0.1,0.3-0.2,0.5-0.5,0.5L38.8,27c-0.2-0.1-0.5-0.2-0.4-0.6c0.6-3.4,3.7-4.4,6.5-4.4c1.4,0,3.2,0.4,4.4,1.4
			c1.4,1.3,1.3,3.1,1.3,5v4.5c0,1.4,0.6,1.9,1.1,2.7c0.2,0.3,0.2,0.6,0,0.8C51,36.8,49.9,37.7,49.3,38.2L49.3,38.2z"/>
		<path class="st0" d="M8.5,31.2c0,1.1,0,2.1-0.5,3.1c-0.5,0.8-1.2,1.3-2,1.3c-1.1,0-1.8-0.8-1.8-2.1c0-2.5,2.2-2.9,4.3-2.9V31.2z
			 M11.4,38.2c-0.2,0.2-0.5,0.2-0.7,0.1c-1-0.8-1.1-1.2-1.7-1.9c-1.6,1.6-2.7,2.1-4.8,2.1c-2.4,0-4.3-1.5-4.3-4.5
			c0-2.3,1.3-3.9,3.1-4.7c1.6-0.7,3.8-0.8,5.4-1v-0.4c0-0.7,0.1-1.5-0.4-2.1c-0.4-0.5-1-0.8-1.6-0.8c-1.1,0-2.1,0.6-2.3,1.7
			C4.2,27,4,27.2,3.7,27.3L0.9,27c-0.2-0.1-0.5-0.2-0.4-0.6C1.1,23,4.2,21.9,7,21.9c1.4,0,3.2,0.4,4.4,1.4c1.4,1.3,1.3,3.1,1.3,5
			v4.5c0,1.4,0.6,1.9,1.1,2.7c0.2,0.3,0.2,0.6,0,0.8C13.1,36.8,12,37.7,11.4,38.2L11.4,38.2z"/>
	</g>
</g>
</svg>
