<?xml version="1.0" encoding="utf-8"?>
<!-- Generator: Adobe Illustrator 24.0.0, SVG Export Plug-In . SVG Version: 6.00 Build 0)  -->
<svg version="1.1" id="Layer_1" xmlns="http://www.w3.org/2000/svg" xmlns:xlink="http://www.w3.org/1999/xlink" x="0px" y="0px"
	 viewBox="0 0 144 72" style="enable-background:new 0 0 144 72;" xml:space="preserve">
<path d="M44,12.5c6.2-2.9,13.7-2.8,19.9,0.2c4.3,2,7.8,5.4,10.1,9.6c-1.4,0.7-2.8,1.4-4.3,2.2c-2.3-4.1-5.9-7.4-10.2-9.3
	c-5.7-2.5-12.5-2.4-18.1,0.4c-3.1,1.5-5.7,3.9-7.8,6.6C36,18,39.6,14.6,44,12.5L44,12.5z"/>
<path d="M39.6,25.3c3.1-4.7,8.4-8,14-7.9c5.7-0.1,11.1,3.3,14,8.1c-1.4,0.7-2.8,1.4-4.3,2.1c-2.6-4.3-7.3-7.2-12.4-7.2
	C46.6,20.2,42.5,22.3,39.6,25.3L39.6,25.3z"/>
<path d="M27.1,22.8C36,27.2,44.8,31.6,53.6,36c8.8-4.4,17.6-8.8,26.4-13.2c0,1.3,0,2.5,0,3.7c-8.8,4.4-17.6,8.8-26.4,13.2
	C44.8,35.4,36,31,27.1,26.6C27.1,25.3,27.1,24,27.1,22.8z"/>
<path d="M46,28.6c1.6-2.2,4-4.2,6.9-4.3c3.4-0.4,6.5,1.7,8.2,4.5c-1.4,0.7-2.8,1.4-4.3,2.2c-1.3-2-3.4-3.7-5.9-3.8
	C49.2,26.9,47.5,27.6,46,28.6L46,28.6z"/>
<path d="M101,39.2c1.9,0,3.7,0,5.5,0c0,7.8,0,15.6,0,23.4H101C101,54.8,101,46.9,101,39.2z M74.5,39.2c1.9,0,3.7,0,5.5,0
	c0,1.4,0,2.8,0,4.3c-1.9,0-3.7,0-5.5,0C74.5,42,74.5,40.6,74.5,39.2z M36.6,45.5c1.9,0,3.7,0,5.5,0c0,3.4,0,6.7,0,10.1
	c0,1.2,0.5,2.5,1.8,2.8c1.8,0.6,3.8-0.8,4-2.7c0.2-3.4,0-6.7,0.1-10.1c1.9,0,3.7,0,5.5,0v17h-5.4c0-0.8,0-1.6,0-2.4
	c-1.1,1.4-2.7,2.6-4.6,2.8c-1.9,0.1-4.1-0.1-5.4-1.6c-1.3-1.4-1.5-3.4-1.6-5.1C36.6,52.7,36.6,49.1,36.6,45.5L36.6,45.5z M74.5,45.5
	c1.9,0,3.7,0,5.5,0c0,5.7,0,11.3,0,17c-1.9,0-3.7,0-5.5,0C74.5,56.9,74.5,51.2,74.5,45.5L74.5,45.5z M125.7,55.4
	c0.1-2.7-0.5-5.5-2.3-7.5c-3.3-3.7-9.7-3.7-13.1-0.2c-3.5,3.3-3.6,9.5-0.2,12.9c2.8,2.7,7.2,3.1,10.7,1.9c2.2-0.7,4-2.7,4.6-4.9
	c-1.7,0-3.4,0-5.1,0c-1.1,2.1-4.3,2.5-6,0.8c-0.8-0.7-1-1.9-1.2-2.8C117.3,55.4,121.6,55.4,125.7,55.4L125.7,55.4z M113.1,52.3
	c0.3-0.8,0.5-1.7,1.1-2.4c1.1-1.3,3.2-1.5,4.6-0.4c0.9,0.7,1.2,1.8,1.4,2.8C117.8,52.3,115.5,52.3,113.1,52.3z M66.9,39.2
	c0,2.8,0,5.5,0,8.3c-2.1-2.7-6.3-3.1-9-1.1c-2.1,1.6-3.1,4.2-3.1,6.7c-0.1,2.7,0.4,5.5,2.2,7.6c1.7,2.2,4.9,2.9,7.4,2.1
	c1.2-0.4,2-1.3,2.8-2.2c0,0.7,0,1.3,0,2c1.8,0,3.5,0,5.3,0c0-7.8,0-15.6,0-23.4C70.5,39.2,68.6,39.2,66.9,39.2L66.9,39.2z
	 M66.4,57.2c-0.8,1.9-3.5,2.2-4.9,0.7c-1.1-1.3-1.3-3.1-1.3-4.7c0.1-1.4,0.7-3.1,2.1-3.7c1.4-0.6,3.2-0.1,4,1.3
	C67.3,52.8,67.2,55.2,66.4,57.2z M97,46.7c-2.6-2.5-7.3-2.2-9.5,0.7c0.1-2.8,0-5.5,0-8.3c-1.9,0-3.7,0-5.5,0c0,7.8,0,15.6,0,23.4
	c1.8,0,3.5,0,5.3,0c0-0.7,0-1.3,0-2c0.8,1,1.8,1.9,3.1,2.2c2.3,0.7,5,0.1,6.7-1.6c1.9-1.9,2.6-4.6,2.7-7.2
	C99.7,51.3,98.9,48.6,97,46.7z M94,55c-0.1,1.1-0.5,2.3-1.3,3.1c-1.3,1.2-3.7,0.9-4.6-0.7c-0.7-1.3-0.7-2.7-0.7-4
	c0.1-1.5,0.7-3.2,2.2-3.8c1.2-0.4,2.7-0.2,3.4,0.8C94.1,51.6,94.2,53.4,94,55L94,55z M34.8,54c-0.1-2,0.3-4.1-0.6-6
	c-0.9-1.9-3-2.6-4.9-2.8c-2.8-0.3-5.7-0.3-8.1,1.3c-1.5,0.9-2.2,2.6-2.4,4.3c1.7,0,3.4,0,5.1,0c0.4-0.7,0.7-1.6,1.6-1.9
	c1.1-0.4,2.5-0.3,3.5,0.4c0.9,0.7,0.7,2.3-0.4,2.5c-2.5,0.7-5.1,0.5-7.5,1.6c-1.3,0.5-2.5,1.7-2.8,3.2c-0.1,1.6-0.2,3.3,0.9,4.6
	c1.3,1.6,3.5,2,5.4,1.9c1.8-0.1,3.6-0.8,4.9-2c0.1,0.5,0.2,1,0.3,1.6c1.9,0,3.7,0,5.6,0C34.5,59.9,35,56.9,34.8,54L34.8,54z
	 M28.9,58.4c-0.8,1.3-2.7,1.4-4,1c-1.4-0.5-1.4-2.8-0.1-3.4c1.5-0.7,3.3-0.8,4.9-1.3C29.5,55.9,29.5,57.3,28.9,58.4L28.9,58.4z"/>
</svg>
